<?xml version="1.0" encoding="UTF-8"?>
<svg version="1.1" xmlns="http://www.w3.org/2000/svg" width="299" height="218">
<path d="M0 0 C98.67 0 197.34 0 299 0 C299 71.94 299 143.88 299 218 C200.33 218 101.66 218 0 218 C0 146.06 0 74.12 0 0 Z " fill="#B2B5BA" transform="translate(0,0)"/>
<path d="M0 0 C28.58625 -0.12375 28.58625 -0.12375 57.75 -0.25 C66.74846191 -0.30462402 66.74846191 -0.30462402 75.92871094 -0.36035156 C83.30126953 -0.37841797 83.30126953 -0.37841797 86.76177979 -0.3817749 C89.15878272 -0.38788379 91.55577401 -0.4018823 93.95269775 -0.42230225 C97.6011666 -0.45180821 101.24888973 -0.45561651 104.89746094 -0.45410156 C105.95038204 -0.468494 107.00330315 -0.48288643 108.08813095 -0.497715 C122.38212274 -0.41887045 134.5005377 5.44779661 144.6875 15.3125 C148 18.69138277 148 18.69138277 148 21 C148.66 21 149.32 21 150 21 C158.28829914 35.53776533 161.22616501 46.86716033 156.8515625 63.50390625 C156 66 156 66 154 69 C153.34 69 152.68 69 152 69 C151.71125 69.78375 151.4225 70.5675 151.125 71.375 C150 74 150 74 148 76 C147.7886547 78.3912295 147.7886547 78.3912295 149 81 C150.5915585 82.5422426 152.29513112 83.88652497 154.0234375 85.2734375 C161.52958122 91.83018755 166.04329375 100.050255 167 110 C167.80805002 123.55947358 164.27885524 135.16092969 156 146 C149.2787946 153.35320938 140.97550401 158.78554059 132 163 C131.319375 163.32613281 130.63875 163.65226563 129.9375 163.98828125 C124.98350519 166.24106768 120.4469894 167.12617157 115.03288269 167.12025452 C114.05838165 167.12162918 113.08388062 167.12300385 112.07984924 167.12442017 C111.02249069 167.12082489 109.96513214 167.11722961 108.87573242 167.11352539 C107.75334167 167.11367142 106.63095093 167.11381744 105.47454834 167.1139679 C101.76816875 167.11327176 98.06183955 167.10549328 94.35546875 167.09765625 C91.78428678 167.09579101 89.21310445 167.09436761 86.641922 167.09336853 C80.56824059 167.08994173 74.49457995 167.08206183 68.42090636 167.07201904 C61.50435862 167.06083146 54.58781001 167.05534079 47.67125547 167.05032361 C33.44749396 167.0398785 19.22374762 167.02229555 5 167 C5.79019531 166.21238281 6.58039063 165.42476562 7.39453125 164.61328125 C8.84564762 163.15781371 10.28700265 161.6917379 11.6875 160.1875 C13 159 13 159 15 159 C14.67 158.01 14.34 157.02 14 156 C9.99870664 156 9.00566493 157.41373017 6 160 C4.02 161.65 2.04 163.3 0 165 C0 110.55 0 56.1 0 0 Z " fill="#B4B6BB" transform="translate(65,21)"/>
<path d="M0 0 C28.58625 -0.12375 28.58625 -0.12375 57.75 -0.25 C66.74846191 -0.30462402 66.74846191 -0.30462402 75.92871094 -0.36035156 C83.30126953 -0.37841797 83.30126953 -0.37841797 86.76177979 -0.3817749 C89.15878272 -0.38788379 91.55577401 -0.4018823 93.95269775 -0.42230225 C97.6011666 -0.45180821 101.24888973 -0.45561651 104.89746094 -0.45410156 C105.95038204 -0.468494 107.00330315 -0.48288643 108.08813095 -0.497715 C122.38212274 -0.41887045 134.5005377 5.44779661 144.6875 15.3125 C148 18.69138277 148 18.69138277 148 21 C148.66 21 149.32 21 150 21 C156.89106534 33.08700231 161.54750097 43.80999611 158 58 C147.44 58 136.88 58 126 58 C126.33 53.38 126.66 48.76 127 44 C125.68 43.34 124.36 42.68 123 42 C121.96544353 40.81729836 120.93938382 39.62713374 119.91992188 38.43139648 C113.46696201 32.71296581 104.39767104 34.02829089 96.28125 34.09765625 C94.45420559 34.08826369 92.62717462 34.07580129 90.8001709 34.06040955 C86.01267261 34.02826509 81.22613497 34.03759625 76.43859863 34.05578613 C71.54489747 34.06696686 66.65143926 34.03861858 61.7578125 34.01367188 C52.17170371 33.97059184 42.58614419 33.97135938 33 34 C33.10658936 35.75382996 33.10658936 35.75382996 33.21533203 37.54309082 C33.87193477 48.71370214 34.34722773 59.8802914 34.6579895 71.06600189 C34.82321008 76.81519576 35.04572394 82.54852802 35.4140625 88.28857422 C37.95667511 128.95026245 37.95667511 128.95026245 25.76953125 143.359375 C18.3957449 151.51094901 9.98858789 158.68792824 1 165 C0.67 165 0.34 165 0 165 C0 110.55 0 56.1 0 0 Z " fill="#0E2952" transform="translate(65,21)"/>
<path d="M0 0 C11.22 0 22.44 0 34 0 C34 13.76867387 31.03033147 26.21456567 21.53564453 36.60205078 C14.90000949 43.0842847 7.39291749 48.05909483 -1 52 C-1.680625 52.32613281 -2.36125 52.65226562 -3.0625 52.98828125 C-8.01649481 55.24106768 -12.5530106 56.12617157 -17.96711731 56.12025452 C-18.94161835 56.12162918 -19.91611938 56.12300385 -20.92015076 56.12442017 C-21.97750931 56.12082489 -23.03486786 56.11722961 -24.12426758 56.11352539 C-25.24665833 56.11367142 -26.36904907 56.11381744 -27.52545166 56.1139679 C-31.23183125 56.11327176 -34.93816045 56.10549328 -38.64453125 56.09765625 C-41.21571322 56.09579101 -43.78689555 56.09436761 -46.358078 56.09336853 C-52.43175941 56.08994173 -58.50542005 56.08206183 -64.57909364 56.07201904 C-71.49564138 56.06083146 -78.41218999 56.05534079 -85.32874453 56.05032361 C-99.55250604 56.0398785 -113.77625238 56.02229555 -128 56 C-120.73779736 48.70921193 -113.11806075 41.91114213 -105.03871155 35.53440857 C-101.95516991 33.04335343 -101.95516991 33.04335343 -99.19725037 30.17518616 C-92.8124587 23.82644253 -87.9067881 20.84444701 -78.80596066 20.80998325 C-77.31981918 20.84223397 -75.83396642 20.89179456 -74.34892464 20.95742607 C-71.96889731 21.06149087 -69.59637619 21.09392549 -67.21421814 21.11036682 C-62.16152344 21.1576952 -57.11319529 21.29236439 -52.0625 21.4375 C-46.20257301 21.60153933 -40.34568252 21.72764372 -34.48354912 21.77263069 C-32.1640207 21.80759342 -29.85266995 21.90346618 -27.53517151 22.00328064 C-19.55663373 22.19017728 -13.71205321 21.13808527 -6.99389648 16.63696289 C-6.1033222 16.06572897 -6.1033222 16.06572897 -5.19475651 15.48295498 C-3.2258758 14.08507799 -3.2258758 14.08507799 -1 11 C-0.67 7.37 -0.34 3.74 0 0 Z " fill="#0E2A53" transform="translate(198,132)"/>
<path d="M0 0 C1.01307472 0.09474609 1.01307472 0.09474609 2.0466156 0.19140625 C2.76635056 0.22492188 3.48608551 0.2584375 4.22763062 0.29296875 C6.49317547 0.40739815 8.74983351 0.57939585 11.01145935 0.75390625 C12.56007191 0.8423984 14.10890793 0.92706715 15.65794373 1.0078125 C19.42563982 1.2124748 23.18653279 1.46877268 26.94895935 1.75390625 C26.52677119 3.40373375 26.08571511 5.0487429 25.63645935 6.69140625 C25.39282654 7.60792969 25.14919373 8.52445312 24.8981781 9.46875 C24.58493591 10.22285156 24.27169373 10.97695312 23.94895935 11.75390625 C22.95895935 12.08390625 21.96895935 12.41390625 20.94895935 12.75390625 C20.23168157 14.39942587 19.56570707 16.06812914 18.94895935 17.75390625 C18.28895935 18.41390625 17.62895935 19.07390625 16.94895935 19.75390625 C16.73761405 22.14513575 16.73761405 22.14513575 17.94895935 24.75390625 C19.54051785 26.29614885 21.24409047 27.64043122 22.97239685 29.02734375 C31.29492778 36.29722255 34.42444763 44.08232418 35.94895935 54.75390625 C24.72895935 54.75390625 13.50895935 54.75390625 1.94895935 54.75390625 C1.61895935 53.10390625 1.28895935 51.45390625 0.94895935 49.75390625 C-0.8670543 48.55387282 -0.8670543 48.55387282 -3.05104065 47.75390625 C-4.04104065 46.98046875 -4.04104065 46.98046875 -5.05104065 46.19140625 C-9.14952786 43.24561857 -13.69065034 43.58841114 -18.57350159 43.54858398 C-19.32511063 43.53868439 -20.07671967 43.52878479 -20.85110474 43.51858521 C-23.32917661 43.48706159 -25.80726763 43.46224902 -28.28541565 43.4375 C-30.00606274 43.41692258 -31.72670485 43.39592589 -33.44734192 43.37452698 C-37.97151157 43.31938774 -42.49572622 43.26994258 -47.01997375 43.22167969 C-51.63844295 43.17140512 -56.25684695 43.11575016 -60.8752594 43.06054688 C-69.93379948 42.95306495 -78.99239507 42.85209525 -88.05104065 42.75390625 C-88.05104065 31.86390625 -88.05104065 20.97390625 -88.05104065 9.75390625 C-80.30313049 9.78484375 -80.30313049 9.78484375 -72.3986969 9.81640625 C-69.11275092 9.81167399 -65.82714461 9.80458418 -62.54127502 9.7890625 C-57.33350212 9.76468485 -52.12671202 9.74871097 -46.91896057 9.78466797 C-42.71678025 9.81313336 -38.51631591 9.80233605 -34.31422234 9.7651062 C-32.71678955 9.75769946 -31.1192273 9.76408468 -29.52191353 9.78494263 C-18.88284172 10.06367872 -18.88284172 10.06367872 -10.00416565 4.7265625 C-8.99495811 3.6439917 -8.99495811 3.6439917 -7.96536255 2.53955078 C-5.3411767 0.09175811 -3.49712621 -0.10928436 0 0 Z " fill="#E97329" transform="translate(196.05104064941406,77.24609375)"/>
<path d="M0 0 C1.01307472 0.09474609 1.01307472 0.09474609 2.0466156 0.19140625 C2.76635056 0.22492188 3.48608551 0.2584375 4.22763062 0.29296875 C6.49317547 0.40739815 8.74983351 0.57939585 11.01145935 0.75390625 C12.56007191 0.8423984 14.10890793 0.92706715 15.65794373 1.0078125 C19.42563982 1.2124748 23.18653279 1.46877268 26.94895935 1.75390625 C26.28895935 4.39390625 25.62895935 7.03390625 24.94895935 9.75390625 C24.61895935 9.75390625 24.28895935 9.75390625 23.94895935 9.75390625 C23.94895935 8.10390625 23.94895935 6.45390625 23.94895935 4.75390625 C22.87001404 4.90988281 21.79106873 5.06585938 20.6794281 5.2265625 C14.207192 6.03755178 7.68822821 6.10254001 1.17356873 6.27148438 C0.18808044 6.30564453 -0.79740784 6.33980469 -1.8127594 6.375 C-3.14246765 6.41258423 -3.14246765 6.41258423 -4.4990387 6.45092773 C-7.35249658 6.78969567 -9.50175306 7.42649457 -12.05104065 8.75390625 C-12.38104065 9.74390625 -12.71104065 10.73390625 -13.05104065 11.75390625 C-49.68104065 11.25890625 -49.68104065 11.25890625 -87.05104065 10.75390625 C-87.05104065 20.98390625 -87.05104065 31.21390625 -87.05104065 41.75390625 C-60.65104065 41.75390625 -34.25104065 41.75390625 -7.05104065 41.75390625 C-7.05104065 42.41390625 -7.05104065 43.07390625 -7.05104065 43.75390625 C-33.78104065 43.42390625 -60.51104065 43.09390625 -88.05104065 42.75390625 C-88.05104065 31.86390625 -88.05104065 20.97390625 -88.05104065 9.75390625 C-80.30313049 9.78484375 -80.30313049 9.78484375 -72.3986969 9.81640625 C-69.11275092 9.81167399 -65.82714461 9.80458418 -62.54127502 9.7890625 C-57.33350212 9.76468485 -52.12671202 9.74871097 -46.91896057 9.78466797 C-42.71678025 9.81313336 -38.51631591 9.80233605 -34.31422234 9.7651062 C-32.71678955 9.75769946 -31.1192273 9.76408468 -29.52191353 9.78494263 C-18.88284172 10.06367872 -18.88284172 10.06367872 -10.00416565 4.7265625 C-8.99495811 3.6439917 -8.99495811 3.6439917 -7.96536255 2.53955078 C-5.3411767 0.09175811 -3.49712621 -0.10928436 0 0 Z " fill="#CF7941" transform="translate(196.05104064941406,77.24609375)"/>
<path d="M0 0 C0.33 0 0.66 0 1 0 C1 10.89 1 21.78 1 33 C3.29590088 32.98428955 5.59180176 32.9685791 7.95727539 32.95239258 C15.55679937 32.90260492 23.1563307 32.86951439 30.75597477 32.84456348 C35.36206273 32.82893107 39.96798309 32.80773722 44.57397461 32.77368164 C49.02194801 32.74100153 53.46976054 32.72312875 57.91784477 32.71536827 C59.61185677 32.70984026 61.30586032 32.69904541 62.99980354 32.68280983 C65.37904775 32.66092017 67.75763362 32.65803783 70.13696289 32.65942383 C70.83180283 32.648638 71.52664276 32.63785217 72.24253845 32.6267395 C78.44289591 32.66562885 82.67360476 34.53335952 87.875 37.8125 C90.48503402 40.49929972 90.74922088 42.32190629 91 46 C89.515 45.505 89.515 45.505 88 45 C88 43.68 88 42.36 88 41 C87.1028125 40.8453125 87.1028125 40.8453125 86.1875 40.6875 C83.68741714 39.90175967 82.62464918 39.03081147 81 37 C81 36.34 81 35.68 81 35 C79.98744644 35.01474869 78.97489288 35.02949738 77.93165588 35.04469299 C68.41068863 35.18271685 58.88966058 35.3154574 49.36854649 35.4429636 C44.47311296 35.50869447 39.5777205 35.57631674 34.68237305 35.64819336 C29.96217453 35.71742987 25.24193287 35.78178723 20.5216198 35.84269524 C18.71658836 35.86685674 16.91157998 35.89280614 15.10659981 35.92053413 C12.58746069 35.95893393 10.0683161 35.99109805 7.54907227 36.02172852 C6.79525772 36.03467453 6.04144318 36.04762054 5.26478577 36.06095886 C3.50983278 36.07904876 1.7544645 36.04518348 0 36 C-1.70018003 34.29981997 -1.12801936 32.17429865 -1.13894653 29.90663147 C-1.1369223 29.19623215 -1.13489807 28.48583282 -1.1328125 27.75390625 C-1.13376923 27.02759506 -1.13472595 26.30128387 -1.13571167 25.55296326 C-1.13639344 24.0137422 -1.13453937 22.47451829 -1.13037109 20.93530273 C-1.12503043 18.57594343 -1.13031215 16.21677516 -1.13671875 13.85742188 C-1.13605782 12.36458291 -1.13477634 10.87174407 -1.1328125 9.37890625 C-1.13483673 8.67053116 -1.13686096 7.96215607 -1.13894653 7.23231506 C-1.11495714 2.22991429 -1.11495714 2.22991429 0 0 Z " fill="#CFAC95" transform="translate(107,87)"/>
<path d="M0 0 C0.66 0.33 1.32 0.66 2 1 C0.46126823 4.71860179 -0.47511388 5.35633541 -4 8 C31.31 8 66.62 8 103 8 C103 8.99 103 9.98 103 11 C65.05 11 27.1 11 -12 11 C-9.06955453 8.06955453 -6.32223883 5.33051509 -3.1875 2.6875 C-2.58292969 2.17574219 -1.97835937 1.66398438 -1.35546875 1.13671875 C-0.90816406 0.76160156 -0.46085937 0.38648438 0 0 Z " fill="#192D4C" transform="translate(82,177)"/>
<path d="M0 0 C0.66 0.66 1.32 1.32 2 2 C2.66 1.67 3.32 1.34 4 1 C4 2.32 4 3.64 4 5 C-0.455 8.465 -0.455 8.465 -5 12 C31.63 12.33 68.26 12.66 106 13 C106 13.33 106 13.66 106 14 C50.065 14.495 50.065 14.495 -7 15 C-7.66 13.02 -8.32 11.04 -9 9 C-6.03 6.03 -3.06 3.06 0 0 Z " fill="#969FB1" transform="translate(76,175)"/>
<path d="M0 0 C16.335 0.495 16.335 0.495 33 1 C32.34 3.64 31.68 6.28 31 9 C30.67 9 30.34 9 30 9 C30 7.35 30 5.7 30 4 C28.9275 4.16371094 27.855 4.32742187 26.75 4.49609375 C21.17115445 5.19344944 15.61350035 5.10816677 10 5.0625 C8.93910156 5.05798828 7.87820312 5.05347656 6.78515625 5.04882812 C4.19004402 5.03713843 1.59505291 5.02075276 -1 5 C-0.67 3.35 -0.34 1.7 0 0 Z " fill="#C16934" transform="translate(190,78)"/>
<path d="M0 0 C11.22 0 22.44 0 34 0 C34 0.66 34 1.32 34 2 C30.37 2 26.74 2 23 2 C23 2.99 23 3.98 23 5 C20.4580411 5.05434116 17.91726318 5.0938339 15.375 5.125 C14.66214844 5.14175781 13.94929687 5.15851563 13.21484375 5.17578125 C8.7387836 5.21684602 5.22050722 4.69086567 1 3 C0.67 4.32 0.34 5.64 0 7 C0 4.69 0 2.38 0 0 Z " fill="#323043" transform="translate(198,132)"/>
<path d="M0 0 C2.55968208 2.55968208 2.79830893 4.55950098 3.625 8.0625 C4.01558594 9.68865234 4.01558594 9.68865234 4.4140625 11.34765625 C5 14 5 14 5 15 C-6.22 15 -17.44 15 -29 15 C-28.67 14.01 -28.34 13.02 -28 12 C-27.37955811 12.00523682 -26.75911621 12.01047363 -26.11987305 12.01586914 C-23.30909233 12.03665466 -20.49832779 12.04966517 -17.6875 12.0625 C-16.22280273 12.07506836 -16.22280273 12.07506836 -14.72851562 12.08789062 C-13.79072266 12.09111328 -12.85292969 12.09433594 -11.88671875 12.09765625 C-11.02264404 12.10289307 -10.15856934 12.10812988 -9.26831055 12.11352539 C-6.83271286 12.09335523 -6.83271286 12.09335523 -4 11 C-3.01 11.33 -2.02 11.66 -1 12 C-1 11.34 -1 10.68 -1 10 C-1.66 10 -2.32 10 -3 10 C-3 9.34 -3 8.68 -3 8 C-2.34 8 -1.68 8 -1 8 C-0.67 5.36 -0.34 2.72 0 0 Z " fill="#E0772C" transform="translate(227,117)"/>
<path d="M0 0 C6.91656906 3.74175047 13.01688821 7.81982783 18 14 C18 14.66 18 15.32 18 16 C18.66 16 19.32 16 20 16 C21.17441535 18.10016623 22.33964012 20.20458755 23.5 22.3125 C23.83386719 22.90740234 24.16773438 23.50230469 24.51171875 24.11523438 C26.06825114 26.95828844 27 28.70660988 27 32 C26.34 32 25.68 32 25 32 C25 31.01 25 30.02 25 29 C24.34 29 23.68 29 23 29 C21.375 27.8125 21.375 27.8125 20 26 C19.8125 23.3125 19.8125 23.3125 20 21 C19.360625 20.87625 18.72125 20.7525 18.0625 20.625 C17.0415625 20.315625 17.0415625 20.315625 16 20 C15.67 19.34 15.34 18.68 15 18 C15.33 17.34 15.66 16.68 16 16 C15.34 16 14.68 16 14 16 C12.51225784 13.6713601 11.16019952 11.28667283 9.8125 8.875 C7.07388102 6.04194589 3.70323452 5.16110916 0 4 C0 2.68 0 1.36 0 0 Z " fill="#172B4B" transform="translate(195,26)"/>
<path d="M0 0 C0.6875 1.75 0.6875 1.75 1 4 C-0.375 6 -0.375 6 -2 8 C-2.70514846 10.14733927 -2.70514846 10.14733927 -3 12 C-3.99 12 -4.98 12 -6 12 C-6 13.98 -6 15.96 -6 18 C-5.401875 18.268125 -4.80375 18.53625 -4.1875 18.8125 C-1.96295867 20.02010815 -0.7375407 21.1813456 1 23 C1.59039062 23.60457031 2.18078125 24.20914063 2.7890625 24.83203125 C6.4164015 28.74492672 8.86017356 31.40694238 9 37 C9.66 37 10.32 37 11 37 C13 44.625 13 44.625 13 48 C11.515 47.505 11.515 47.505 10 47 C9.19140625 44.48828125 9.19140625 44.48828125 8.5625 41.3125 C7.43507291 36.26906286 6.10439176 33.06782368 3 29 C3 28.34 3 27.68 3 27 C2.01 26.67 1.02 26.34 0 26 C-1.25946494 24.51447725 -2.51619739 23.02579359 -3.7265625 21.5 C-5.27936439 19.67093274 -7.00854376 18.32763749 -9 17 C-8.29934383 11.04442256 -5.12424229 7.12424229 -1 3 C-0.67 2.01 -0.34 1.02 0 0 Z " fill="#CBAD99" transform="translate(221,84)"/>
<path d="M0 0 C0.33 0.99 0.66 1.98 1 3 C0.01 4.485 0.01 4.485 -1 6 C-1.66 6 -2.32 6 -3 6 C-3 6.99 -3 7.98 -3 9 C-3 9.99 -3 10.98 -3 12 C-6.33333333 12.66666667 -9.66666667 13.33333333 -13 14 C-13.33 13.34 -13.66 12.68 -14 12 C-9.73412126 7.45890328 -4.96387672 3.75264754 0 0 Z " fill="#142D58" transform="translate(101,161)"/>
<path d="M0 0 C0.66 0.66 1.32 1.32 2 2 C2.66 1.67 3.32 1.34 4 1 C4 2.32 4 3.64 4 5 C2.1015625 6.81640625 2.1015625 6.81640625 -0.375 8.5625 C-3.31475104 10.6576559 -4.96961842 11.95442763 -7 15 C-7.66 13.02 -8.32 11.04 -9 9 C-6.03 6.03 -3.06 3.06 0 0 Z " fill="#A1AAB7" transform="translate(76,175)"/>
<path d="M0 0 C2 2 2 2 2 4 C2.66 4.66 3.32 5.32 4 6 C1.36 7.98 -1.28 9.96 -4 12 C-4.33 11.34 -4.66 10.68 -5 10 C-5.99 10 -6.98 10 -8 10 C-5.83735988 6.01618925 -3.28788824 3.11016455 0 0 Z " fill="#A6ADB9" transform="translate(84,167)"/>
<path d="M0 0 C2.55968208 2.55968208 2.79830893 4.55950098 3.625 8.0625 C4.01558594 9.68865234 4.01558594 9.68865234 4.4140625 11.34765625 C5 14 5 14 5 15 C-6.22 15 -17.44 15 -29 15 C-28.67 14.01 -28.34 13.02 -28 12 C-28 12.66 -28 13.32 -28 14 C-17.77 14 -7.54 14 3 14 C1.515 9.05 1.515 9.05 0 4 C0 2.68 0 1.36 0 0 Z " fill="#C88356" transform="translate(227,117)"/>
<path d="M0 0 C0.680625 0.28875 1.36125 0.5775 2.0625 0.875 C2.0625 1.865 2.0625 2.855 2.0625 3.875 C1.155 4.1225 0.2475 4.37 -0.6875 4.625 C-4.04101489 5.91481342 -5.61458236 7.19471042 -7.9375 9.875 C-8.5975 9.545 -9.2575 9.215 -9.9375 8.875 C-9.9375 5.875 -9.9375 5.875 -8.58203125 4.234375 C-3.58802704 -0.152682 -3.58802704 -0.152682 0 0 Z " fill="#A8B2BE" transform="translate(218.9375,170.125)"/>
<path d="M0 0 C0.66 0.33 1.32 0.66 2 1 C0.42771844 4.85923655 -1.79032965 7.36093771 -5 10 C-8.8125 10.8125 -8.8125 10.8125 -12 11 C-8.19588166 7.08060535 -4.18423892 3.50897269 0 0 Z " fill="#242C4B" transform="translate(82,177)"/>
<path d="M0 0 C2.58361518 -0.05407567 5.16609255 -0.093707 7.75 -0.125 C8.84441406 -0.15013672 8.84441406 -0.15013672 9.9609375 -0.17578125 C13.8044624 -0.21072239 16.74606772 -0.17499684 20 2 C19 3 19 3 17.05053711 3.02172852 C15.8015564 2.95103149 15.8015564 2.95103149 14.52734375 2.87890625 C13.62822266 2.83056641 12.72910156 2.78222656 11.80273438 2.73242188 C10.85720703 2.67634766 9.91167969 2.62027344 8.9375 2.5625 C7.5134082 2.48418945 7.5134082 2.48418945 6.06054688 2.40429688 C3.70673048 2.27418642 1.35329301 2.13920888 -1 2 C-0.67 1.34 -0.34 0.68 0 0 Z " fill="#182945" transform="translate(166,21)"/>
<path d="M0 0 C3.93235904 4.49412462 8 9.84759838 8 16 C7.34 16 6.68 16 6 16 C6 15.01 6 14.02 6 13 C5.34 13 4.68 13 4 13 C2.375 11.875 2.375 11.875 1 10 C0.8125 6.8125 0.8125 6.8125 1 4 C0.34 3.67 -0.32 3.34 -1 3 C-0.67 2.01 -0.34 1.02 0 0 Z " fill="#243453" transform="translate(214,42)"/>
<path d="M0 0 C2.475 0.99 2.475 0.99 5 2 C1.15080717 6.33034194 -2.72289646 8.6560756 -8 11 C-8 10.01 -8 9.02 -8 8 C-6.50390625 6.71875 -6.50390625 6.71875 -4.5625 5.5 C-1.40503705 3.53380379 -1.40503705 3.53380379 0 0 Z " fill="#223756" transform="translate(208,171)"/>
<path d="M0 0 C0.66 0.33 1.32 0.66 2 1 C0.96824918 4.09525247 0.22397597 4.88801201 -2.75 6.375 C-6.52642979 7.1012365 -8.50818619 6.49649163 -12 5 C-12 4.67 -12 4.34 -12 4 C-11.30132812 3.79503906 -10.60265625 3.59007812 -9.8828125 3.37890625 C-8.97273437 3.10949219 -8.06265625 2.84007812 -7.125 2.5625 C-6.22007812 2.29566406 -5.31515625 2.02882812 -4.3828125 1.75390625 C-2.01724619 1.07386174 -2.01724619 1.07386174 0 0 Z " fill="#A2ABBA" transform="translate(197,183)"/>
<path d="M0 0 C4.92310579 0.43439169 7.58903229 2.5115103 11 6 C11.875 9.3125 11.875 9.3125 12 12 C11.01 11.67 10.02 11.34 9 11 C9 9.68 9 8.36 9 7 C8.401875 6.896875 7.80375 6.79375 7.1875 6.6875 C4.68741714 5.90175967 3.62464918 5.03081147 2 3 C2 2.34 2 1.68 2 1 C1.34 0.67 0.68 0.34 0 0 Z " fill="#C7A796" transform="translate(186,121)"/>
<path d="M0 0 C1 2 1 2 0.0625 5.125 C-0.4634375 6.548125 -0.4634375 6.548125 -1 8 C-1.33 8 -1.66 8 -2 8 C-2 6.35 -2 4.7 -2 3 C-8.93 2.67 -15.86 2.34 -23 2 C-23 1.67 -23 1.34 -23 1 C-15.41 0.67 -7.82 0.34 0 0 Z " fill="#D2804A" transform="translate(222,79)"/>
<path d="M0 0 C0.66 0.66 1.32 1.32 2 2 C0.93106782 3.03590338 -0.15578488 4.05333942 -1.25 5.0625 C-2.15492187 5.91521484 -2.15492187 5.91521484 -3.078125 6.78515625 C-5 8 -5 8 -7.234375 7.68359375 C-7.81703125 7.45800781 -8.3996875 7.23242188 -9 7 C-9 5 -9 5 -7 3 C-6.67 2.34 -6.34 1.68 -6 1 C-5.01 1.66 -4.02 2.32 -3 3 C-3 2.34 -3 1.68 -3 1 C-2.01 0.67 -1.02 0.34 0 0 Z " fill="#A5ABB5" transform="translate(105,155)"/>
<path d="M0 0 C0.33 0.99 0.66 1.98 1 3 C1.66 3 2.32 3 3 3 C3 2.34 3 1.68 3 1 C3.99 1.33 4.98 1.66 6 2 C4.02 4.31 2.04 6.62 0 9 C-0.66 8.67 -1.32 8.34 -2 8 C-1.125 1.125 -1.125 1.125 0 0 Z " fill="#152C47" transform="translate(68,175)"/>
<path d="M0 0 C1.32 0.66 2.64 1.32 4 2 C3.195625 2.61875 2.39125 3.2375 1.5625 3.875 C-1.03874519 5.74164041 -1.03874519 5.74164041 -2 8 C-3.32 7.01 -4.64 6.02 -6 5 C-4.02 3.35 -2.04 1.7 0 0 Z " fill="#1E3252" transform="translate(108,155)"/>
<path d="M0 0 C2.31 0.33 4.62 0.66 7 1 C5.35 2.65 3.7 4.3 2 6 C1.67 5.34 1.34 4.68 1 4 C0.01 4 -0.98 4 -2 4 C-1.34 2.68 -0.68 1.36 0 0 Z " fill="#ADB2BF" transform="translate(78,173)"/>
<path d="M0 0 C0.33 0.99 0.66 1.98 1 3 C-1.12055614 6.1808342 -2.63050557 7.31525278 -6 9 C-6.66 8.67 -7.32 8.34 -8 8 C-3.375 2.25 -3.375 2.25 0 0 Z " fill="#1C2D4B" transform="translate(101,161)"/>
<path d="M0 0 C0.33 0 0.66 0 1 0 C1.05423638 1.91635217 1.09289963 3.83314925 1.125 5.75 C1.14820313 6.81734375 1.17140625 7.8846875 1.1953125 8.984375 C1 12 1 12 -1 16 C-1.33 12.37 -1.66 8.74 -2 5 C-1.67 5 -1.34 5 -1 5 C-0.67 3.35 -0.34 1.7 0 0 Z " fill="#3C4B63" transform="translate(223,63)"/>
<path d="M0 0 C2.67927341 4.01891012 2.15601248 6.24161923 2 11 C1.34 11 0.68 11 0 11 C-1.28571429 3.57142857 -1.28571429 3.57142857 0 0 Z " fill="#B8B9C4" transform="translate(190,66)"/>
<path d="M0 0 C1.32 0 2.64 0 4 0 C3.67 0.99 3.34 1.98 3 3 C2.34 3 1.68 3 1 3 C0.34 4.65 -0.32 6.3 -1 8 C-1.33 8 -1.66 8 -2 8 C-2.125 5.125 -2.125 5.125 -2 2 C-1.34 1.34 -0.68 0.68 0 0 Z " fill="#CF7C48" transform="translate(216,87)"/>
<path d="M0 0 C3.3 1.98 6.6 3.96 10 6 C8 7 8 7 6.0546875 6.44140625 C5.33539063 6.15136719 4.61609375 5.86132812 3.875 5.5625 C3.15054688 5.27503906 2.42609375 4.98757812 1.6796875 4.69140625 C1.12539062 4.46324219 0.57109375 4.23507813 0 4 C0 2.68 0 1.36 0 0 Z " fill="#263753" transform="translate(195,26)"/>
<path d="M0 0 C0.2475 0.5775 0.495 1.155 0.75 1.75 C2.16683317 4.3002997 3.87627537 6.01785701 6 8 C3.61435923 7.42415568 1.33317216 6.77772405 -1 6 C-1.33 4.35 -1.66 2.7 -2 1 C-1.34 0.67 -0.68 0.34 0 0 Z " fill="#D38652" transform="translate(211,97)"/>
<path d="M0 0 C3.26737303 3.26737303 3.95672896 6.83168198 4.125 11.375 C4.08375 12.24125 4.0425 13.1075 4 14 C1.51787516 9.39033958 0 5.27072485 0 0 Z " fill="#CC8049" transform="translate(227,117)"/>
<path d="M0 0 C0.66 0.33 1.32 0.66 2 1 C0.95125002 3.62187494 0.35068687 4.79371361 -2.125 6.25 C-2.74375 6.4975 -3.3625 6.745 -4 7 C-4.33 6.01 -4.66 5.02 -5 4 C-3.35 2.68 -1.7 1.36 0 0 Z M-6 7 C-5.01 7.495 -5.01 7.495 -4 8 C-4.99 8.495 -4.99 8.495 -6 9 C-6 8.34 -6 7.68 -6 7 Z " fill="#192848" transform="translate(82,177)"/>
<path d="M0 0 C0.66 0.33 1.32 0.66 2 1 C2.99 0.67 3.98 0.34 5 0 C4.5 1.9375 4.5 1.9375 3 4 C0.30341548 4.68790422 -2.2017019 4.81946464 -5 5 C-3.35 3.35 -1.7 1.7 0 0 Z " fill="#2C3E5A" transform="translate(93,167)"/>
<path d="M0 0 C0.33 1.32 0.66 2.64 1 4 C-1.3125 5.5625 -1.3125 5.5625 -4 7 C-4.99 6.67 -5.98 6.34 -7 6 C-4.69 4.02 -2.38 2.04 0 0 Z " fill="#CD7C52" transform="translate(188,80)"/>
<path d="M0 0 C2.3125 -0.3125 2.3125 -0.3125 5 0 C6.875 2.375 6.875 2.375 8 5 C7.67 5.66 7.34 6.32 7 7 C5.83040013 6.02433888 4.66438823 5.044375 3.5 4.0625 C2.8503125 3.51722656 2.200625 2.97195312 1.53125 2.41015625 C1.0259375 1.94480469 0.520625 1.47945312 0 1 C0 0.67 0 0.34 0 0 Z " fill="#263554" transform="translate(181,56)"/>
<path d="M0 0 C0.33 0 0.66 0 1 0 C1 2.97 1 5.94 1 9 C0.01 9.33 -0.98 9.66 -2 10 C-1.125 2.25 -1.125 2.25 0 0 Z " fill="#ADB8C3" transform="translate(232,141)"/>
<path d="M0 0 C0.763125 0.0825 1.52625 0.165 2.3125 0.25 C1.125 2.25 1.125 2.25 -0.6875 4.25 C-3.375 4.5 -3.375 4.5 -5.6875 4.25 C-3.34903846 0.31153846 -3.34903846 0.31153846 0 0 Z " fill="#ACB8C6" transform="translate(181.6875,78.75)"/>
<path d="M0 0 C2.625 0.375 2.625 0.375 5 1 C5 1.99 5 2.98 5 4 C3.1875 4.6875 3.1875 4.6875 1 5 C-0.75 3.5625 -0.75 3.5625 -2 2 C-1.34 1.34 -0.68 0.68 0 0 Z " fill="#A7AAB2" transform="translate(216,170)"/>
<path d="M0 0 C-1.65 0.66 -3.3 1.32 -5 2 C-4.67 3.65 -4.34 5.3 -4 7 C-4.66 6.67 -5.32 6.34 -6 6 C-6.625 2.9375 -6.625 2.9375 -7 0 C-3.98968256 -0.93423645 -3.13349732 -1.04449911 0 0 Z " fill="#DB7836" transform="translate(214,96)"/>
<path d="M0 0 C0.33 0 0.66 0 1 0 C1.66 3.96 2.32 7.92 3 12 C1.68 11.67 0.36 11.34 -1 11 C-0.67 7.37 -0.34 3.74 0 0 Z " fill="#243450" transform="translate(192,66)"/>
<path d="M0 0 C2.51083114 1.25541557 2.87125446 2.50063488 4 5 C2.02 5 0.04 5 -2 5 C-2.33 4.34 -2.66 3.68 -3 3 C-2.34 3 -1.68 3 -1 3 C-0.67 2.01 -0.34 1.02 0 0 Z " fill="#B9BCC4" transform="translate(208,178)"/>
<path d="M0 0 C0.66 0 1.32 0 2 0 C2.1875 2.375 2.1875 2.375 2 5 C1.01 5.66 0.02 6.32 -1 7 C-1.33 5.68 -1.66 4.36 -2 3 C-1.34 3 -0.68 3 0 3 C0 2.01 0 1.02 0 0 Z " fill="#1F3351" transform="translate(220,161)"/>
<path d="M0 0 C0.33 0.66 0.66 1.32 1 2 C0.67 2.66 0.34 3.32 0 4 C-0.66 4 -1.32 4 -2 4 C-2 4.66 -2 5.32 -2 6 C-3.65 6 -5.3 6 -7 6 C-4.83312509 3.72478134 -2.54379491 1.84205838 0 0 Z " fill="#22334E" transform="translate(190,148)"/>
<path d="M0 0 C2.97 0.495 2.97 0.495 6 1 C6.33 2.65 6.66 4.3 7 6 C5.83054208 5.19152271 4.66449539 4.37810888 3.5 3.5625 C2.8503125 3.11003906 2.200625 2.65757813 1.53125 2.19140625 C1.0259375 1.79824219 0.520625 1.40507813 0 1 C0 0.67 0 0.34 0 0 Z " fill="#D4783C" transform="translate(189,121)"/>
<path d="M0 0 C1.65 0 3.3 0 5 0 C5 1.65 5 3.3 5 5 C3.0625 4.1875 3.0625 4.1875 1 3 C0.67 2.01 0.34 1.02 0 0 Z " fill="#BDB2AC" transform="translate(221,106)"/>
</svg>
